<svg width="800" height="450" xmlns="http://www.w3.org/2000/svg">
  <defs>
    <linearGradient id="bgGrad1" x1="0%" y1="0%" x2="100%" y2="100%">
      <stop offset="0%" style="stop-color:#0a0a0f;stop-opacity:1" />
      <stop offset="100%" style="stop-color:#1a1a2e;stop-opacity:1" />
    </linearGradient>
    <linearGradient id="blockGrad" x1="0%" y1="0%" x2="100%" y2="100%">
      <stop offset="0%" style="stop-color:#00f0ff;stop-opacity:0.8" />
      <stop offset="100%" style="stop-color:#00ffcc;stop-opacity:0.6" />
    </linearGradient>
  </defs>
  <rect width="800" height="450" fill="url(#bgGrad1)" />
  <g opacity="0.1">
    <pattern id="grid1" width="40" height="40" patternUnits="userSpaceOnUse">
      <path d="M 40 0 L 0 0 0 40" fill="none" stroke="#00f0ff" stroke-width="1"/>
    </pattern>
    <rect width="800" height="450" fill="url(#grid1)" />
  </g>
  <g transform="translate(150, 80)">
    <rect x="0" y="0" width="120" height="120" fill="none" stroke="url(#blockGrad)" stroke-width="2" opacity="0.9" />
    <rect x="140" y="0" width="120" height="120" fill="none" stroke="url(#blockGrad)" stroke-width="2" opacity="0.7" />
    <rect x="280" y="0" width="120" height="120" fill="none" stroke="url(#blockGrad)" stroke-width="2" opacity="0.5" />
    <rect x="0" y="140" width="120" height="120" fill="none" stroke="url(#blockGrad)" stroke-width="2" opacity="0.7" />
    <rect x="140" y="140" width="120" height="120" fill="none" stroke="url(#blockGrad)" stroke-width="2" opacity="0.9" />
    <rect x="280" y="140" width="120" height="120" fill="none" stroke="url(#blockGrad)" stroke-width="2" opacity="0.7" />
    <path d="M 120 60 L 140 60" stroke="#00f0ff" stroke-width="2" opacity="0.8" />
    <path d="M 260 60 L 280 60" stroke="#00f0ff" stroke-width="2" opacity="0.6" />
    <path d="M 60 120 L 60 140" stroke="#00f0ff" stroke-width="2" opacity="0.7" />
    <path d="M 200 120 L 200 140" stroke="#00f0ff" stroke-width="2" opacity="0.9" />
    <path d="M 340 120 L 340 140" stroke="#00f0ff" stroke-width="2" opacity="0.7" />
    <path d="M 120 200 L 140 200" stroke="#00f0ff" stroke-width="2" opacity="0.7" />
    <path d="M 260 200 L 280 200" stroke="#00f0ff" stroke-width="2" opacity="0.7" />
  </g>
  <text x="400" y="380" font-family="Arial, sans-serif" font-size="24" fill="#00f0ff" text-anchor="middle" opacity="0.9">Blockchain Finance</text>
</svg>
