<?xml version="1.0" encoding="UTF-8"?>
<svg xmlns="http://www.w3.org/2000/svg" viewBox="0 0 512 512" width="512" height="512">
  <defs>
    <radialGradient id="bg" cx="50%" cy="42%" r="75%">
      <stop offset="0%" stop-color="#0e1a1a"/>
      <stop offset="100%" stop-color="#0a0a0a"/>
    </radialGradient>
  </defs>
  <rect width="512" height="512" fill="url(#bg)"/>

  <!-- corner brackets -->
  <g fill="none" stroke="#00ffcc" stroke-width="6" stroke-linecap="square">
    <polyline points="40,96 40,40 96,40"/>
    <polyline points="416,40 472,40 472,96"/>
    <polyline points="472,416 472,472 416,472"/>
    <polyline points="96,472 40,472 40,416"/>
  </g>

  <!-- concentric rings -->
  <g fill="none" stroke="#0a3a36" stroke-width="2">
    <circle cx="256" cy="220" r="150"/>
    <circle cx="256" cy="220" r="118"/>
  </g>
  <circle cx="256" cy="220" r="86" fill="none" stroke="#00ffcc" stroke-width="3" opacity="0.85"/>

  <!-- circuit nodes around outer ring -->
  <g fill="#00ffcc">
    <circle cx="256" cy="70"  r="6"/>
    <circle cx="406" cy="220" r="6"/>
    <circle cx="256" cy="370" r="6"/>
    <circle cx="106" cy="220" r="6"/>
  </g>
  <g stroke="#00ffcc" stroke-width="2" opacity="0.7">
    <line x1="256" y1="70"  x2="256" y2="40"/>
    <line x1="406" y1="220" x2="472" y2="220"/>
    <line x1="256" y1="370" x2="256" y2="472"/>
    <line x1="106" y1="220" x2="40"  y2="220"/>
  </g>

  <!-- K monogram (original geometric construction — NOT a third-party logo) -->
  <g stroke="#00ffcc" stroke-width="14" stroke-linecap="round" stroke-linejoin="round" fill="none">
    <line x1="200" y1="150" x2="200" y2="290"/>
    <polyline points="200,220 270,150 240,195 290,290"/>
  </g>

  <!-- scanline -->
  <line x1="40" y1="430" x2="472" y2="430" stroke="#00ffcc" stroke-width="2" opacity="0.5"/>

  <!-- wordmark -->
  <text x="256" y="478" text-anchor="middle"
        font-family="'Helvetica Neue', Helvetica, Arial, sans-serif"
        font-size="46" font-weight="700" letter-spacing="10"
        fill="#00ffcc">KTech</text>
</svg>